<?xml version="1.0" standalone="no"?>
<!DOCTYPE svg PUBLIC "-//W3C//DTD SVG 20010904//EN"
 "http://www.w3.org/TR/2001/REC-SVG-20010904/DTD/svg10.dtd">
<svg version="1.0" xmlns="http://www.w3.org/2000/svg"
 width="512.000000pt" height="512.000000pt" viewBox="0 0 512.000000 512.000000"
 preserveAspectRatio="xMidYMid meet">

<g transform="translate(0.000000,512.000000) scale(0.100000,-0.100000)"
fill="#000000" stroke="none">
<path d="M2945 5105 c-218 -47 -385 -180 -560 -445 -120 -182 -283 -452 -518
-860 -418 -727 -1050 -1858 -1085 -1943 -87 -214 12 -459 227 -565 l75 -37
888 -3 888 -2 0 -420 c0 -270 4 -438 11 -472 18 -87 58 -158 123 -223 138
-137 338 -171 514 -88 73 34 170 131 204 203 45 97 48 135 48 580 l0 420 120
0 c175 0 267 35 366 138 223 233 126 627 -181 732 -41 14 -99 23 -182 27
l-123 6 0 1144 c0 1245 1 1209 -56 1362 -121 321 -449 514 -759 446z m-88
-2952 c-2 -2 -203 -2 -445 -1 l-442 3 443 777 442 776 3 -776 c1 -426 1 -777
-1 -779z"/>
</g>
</svg>
