<?xml version="1.0" standalone="no"?>
<!DOCTYPE svg PUBLIC "-//W3C//DTD SVG 20010904//EN"
 "http://www.w3.org/TR/2001/REC-SVG-20010904/DTD/svg10.dtd">
<svg version="1.0" xmlns="http://www.w3.org/2000/svg"
 width="1871.000000pt" height="1901.000000pt" viewBox="0 0 1871.000000 1901.000000"
 preserveAspectRatio="xMidYMid meet">

<g transform="translate(0.000000,1901.000000) scale(0.100000,-0.100000)"
fill="#000000" stroke="none">
<path d="M9137 18734 c-1 -1 -87 -5 -192 -8 -104 -4 -203 -9 -220 -11 -16 -2
-68 -7 -115 -10 -47 -3 -103 -8 -125 -10 -22 -2 -107 -11 -190 -20 -82 -9
-175 -20 -205 -25 -30 -5 -77 -12 -105 -15 -185 -22 -664 -119 -895 -180 -74
-20 -151 -40 -170 -45 -121 -30 -518 -159 -725 -235 -334 -123 -1013 -432
-1265 -576 -30 -17 -75 -42 -100 -56 -221 -123 -512 -303 -730 -452 -388 -264
-614 -464 -1239 -1095 -567 -572 -680 -698 -908 -1016 -677 -944 -1181 -2035
-1462 -3165 -126 -509 -211 -1047 -253 -1605 -20 -265 -17 -1040 5 -1300 68
-801 210 -1493 455 -2220 258 -764 614 -1490 1060 -2160 718 -1080 1634 -1969
2742 -2662 126 -79 167 -103 248 -149 17 -11 49 -29 70 -41 41 -23 125 -70
247 -135 160 -86 611 -303 630 -303 3 0 29 -12 58 -26 59 -29 216 -94 327
-134 41 -15 113 -42 160 -59 135 -51 471 -161 580 -192 25 -7 50 -14 55 -15
56 -16 437 -114 460 -118 29 -5 51 -9 105 -21 14 -4 36 -8 50 -11 14 -2 45 -9
70 -14 25 -5 59 -12 76 -15 18 -3 96 -16 175 -29 79 -13 164 -27 189 -31 25
-3 52 -8 60 -10 8 -2 46 -6 83 -10 37 -3 76 -8 85 -10 9 -1 51 -6 92 -10 41
-4 82 -9 90 -10 8 -2 58 -6 110 -10 52 -4 106 -9 120 -10 227 -27 1181 -27
1420 0 19 2 69 6 110 10 90 7 351 37 440 50 19 2 55 7 80 10 260 34 847 159
1130 242 47 13 105 30 130 38 25 7 83 24 130 39 47 15 105 33 130 41 440 137
1118 433 1552 678 156 88 176 100 253 146 37 23 69 41 70 41 7 0 281 178 395
255 273 187 580 421 745 568 44 40 98 88 119 107 167 148 521 498 718 710 388
417 642 731 863 1065 809 1224 1300 2538 1469 3935 56 464 65 654 61 1265 -2
371 -8 573 -19 705 -67 759 -191 1366 -426 2070 -307 921 -796 1865 -1347
2601 -77 103 -156 216 -176 251 -83 148 -111 304 -65 364 67 88 515 585 742
824 45 47 115 121 156 165 107 114 387 411 505 535 55 58 132 139 171 180 l71
75 11 116 c17 167 15 259 -9 359 -58 249 -248 459 -487 539 -153 51 -231 58
-371 29 -140 -28 -233 -77 -361 -191 -58 -51 -370 -359 -695 -684 -629 -629
-787 -778 -871 -819 -79 -39 -181 -40 -270 -3 -16 7 -31 13 -34 14 -34 8 -212
123 -295 190 -57 47 -401 275 -488 324 -18 10 -74 44 -124 75 -51 31 -108 65
-128 76 -19 11 -52 30 -72 41 -21 12 -63 35 -93 52 -30 16 -68 38 -85 47 -108
63 -374 198 -535 270 -63 28 -137 62 -165 75 -27 12 -115 48 -195 80 -80 31
-154 61 -165 65 -151 61 -506 181 -665 225 -3 1 -25 7 -50 15 -59 18 -52 15
-160 45 -52 14 -106 28 -120 31 -14 3 -47 11 -75 19 -27 8 -61 17 -75 19 -14
3 -43 10 -65 15 -22 5 -51 12 -65 15 -14 3 -36 8 -50 11 -14 3 -38 8 -55 11
-16 3 -57 11 -90 19 -33 7 -78 16 -100 19 -22 4 -87 15 -145 26 -58 10 -127
22 -155 26 -27 3 -58 8 -69 10 -10 2 -44 6 -75 10 -31 3 -63 8 -73 9 -9 2 -38
6 -65 10 -26 3 -62 8 -80 11 -18 2 -63 6 -100 9 -37 3 -79 8 -93 10 -14 2 -68
7 -120 10 -53 4 -116 8 -140 10 -144 12 -803 27 -813 19z m733 -779 c91 -4
181 -8 200 -10 20 -1 76 -6 125 -9 50 -4 101 -9 115 -11 14 -2 49 -7 79 -10
30 -4 63 -8 74 -11 11 -2 55 -8 96 -14 93 -13 122 -17 186 -31 28 -5 66 -12
85 -15 19 -3 54 -10 78 -15 23 -5 59 -12 80 -15 110 -17 555 -129 772 -194
162 -49 435 -142 555 -190 17 -6 37 -13 45 -15 23 -5 247 -98 322 -133 37 -18
70 -32 73 -32 16 0 445 -209 565 -276 47 -25 103 -56 125 -69 37 -21 56 -31
150 -85 19 -11 51 -29 71 -40 197 -112 655 -424 829 -565 380 -307 1001 -909
1321 -1280 147 -170 392 -513 567 -793 617 -986 1027 -2059 1216 -3182 65
-386 89 -718 93 -1290 6 -730 -18 -1037 -122 -1585 -241 -1270 -777 -2494
-1546 -3525 -227 -305 -382 -480 -748 -845 -400 -398 -742 -699 -1011 -887
-271 -189 -568 -376 -795 -501 -30 -17 -90 -50 -133 -73 -84 -46 -440 -223
-516 -256 -464 -201 -884 -354 -1236 -449 -167 -44 -191 -51 -225 -58 -19 -5
-93 -22 -165 -39 -137 -32 -411 -86 -497 -97 -15 -2 -69 -11 -120 -19 -112
-18 -231 -34 -313 -41 -33 -4 -73 -8 -90 -10 -16 -2 -70 -6 -120 -10 -49 -4
-106 -8 -125 -11 -208 -22 -1078 -22 -1170 1 -8 2 -62 6 -119 10 -57 4 -111 8
-120 10 -9 1 -47 6 -86 10 -38 3 -85 8 -102 11 -75 10 -109 14 -133 19 -14 2
-52 7 -85 10 -32 4 -62 8 -65 10 -3 1 -27 6 -55 9 -27 4 -57 9 -65 11 -8 2
-33 6 -55 10 -22 3 -85 15 -140 26 -55 12 -111 23 -125 25 -121 23 -447 105
-615 156 -55 16 -120 36 -145 43 -40 11 -288 95 -470 160 -74 26 -388 154
-467 191 -29 13 -79 36 -110 50 -220 99 -607 306 -781 418 -40 25 -74 46 -76
46 -21 0 -485 327 -697 491 -400 309 -921 807 -1265 1209 -957 1119 -1562
2381 -1848 3855 -106 547 -130 848 -130 1610 -1 699 14 882 114 1450 74 421
224 960 397 1430 313 848 831 1764 1327 2345 305 359 887 938 1251 1246 70 58
91 75 205 164 101 78 314 226 442 307 46 29 112 72 148 95 36 23 103 64 150
91 47 27 101 59 120 70 145 85 378 205 690 356 25 12 142 63 260 113 542 228
1182 423 1686 512 43 8 133 24 199 36 113 20 209 34 320 46 28 3 64 7 80 9 17
2 77 7 135 10 58 4 121 8 140 11 19 2 154 7 300 10 146 4 266 7 267 8 5 4 492
-3 633 -9z"/>
<path d="M9188 17215 c-2 -1 -93 -5 -203 -9 -110 -4 -211 -9 -225 -10 -14 -2
-61 -6 -105 -10 -44 -4 -93 -8 -110 -10 -16 -3 -57 -7 -90 -11 -119 -12 -150
-16 -165 -20 -8 -2 -42 -7 -75 -11 -124 -13 -494 -85 -690 -133 -210 -52 -253
-64 -455 -123 -162 -47 -458 -159 -628 -237 -59 -27 -154 -70 -212 -96 -116
-52 -430 -208 -555 -275 -44 -23 -94 -50 -110 -59 -141 -75 -487 -306 -720
-480 -456 -341 -938 -775 -1200 -1081 -819 -954 -1394 -2054 -1685 -3220 -159
-636 -220 -1193 -206 -1860 22 -1075 182 -1909 530 -2772 101 -252 158 -376
295 -643 265 -518 572 -981 947 -1430 606 -724 1308 -1305 2152 -1782 121 -68
445 -228 607 -300 223 -100 701 -278 795 -298 8 -2 35 -10 60 -18 128 -43 574
-154 682 -171 21 -3 57 -10 80 -15 24 -5 63 -12 88 -16 25 -3 52 -8 60 -10 8
-2 33 -6 55 -10 36 -5 65 -10 129 -21 10 -2 44 -6 75 -10 31 -3 64 -8 75 -10
10 -2 51 -6 90 -10 39 -3 73 -8 76 -9 3 -2 53 -7 110 -10 58 -4 116 -9 130
-11 53 -6 403 -18 555 -18 158 0 498 11 565 19 19 2 69 6 110 10 76 6 251 26
395 45 97 12 391 64 495 86 105 23 399 93 435 105 17 5 86 25 155 45 406 117
922 322 1290 511 173 90 400 215 490 272 36 22 79 48 95 57 58 32 343 225 441
298 23 17 52 38 64 46 158 108 527 420 737 623 923 895 1573 1926 1957 3102
190 583 299 1137 358 1825 19 221 16 917 -5 1160 -118 1352 -531 2547 -1253
3627 -481 719 -1082 1349 -1783 1871 -163 121 -473 332 -487 332 -3 0 -20 10
-37 23 -18 12 -41 27 -52 33 -11 6 -92 53 -180 104 -153 89 -460 248 -630 325
-95 44 -464 196 -485 200 -8 2 -40 13 -70 25 -49 20 -340 119 -365 124 -5 2
-30 9 -55 16 -25 7 -49 15 -55 16 -22 6 -121 35 -135 39 -40 13 -469 114 -500
119 -19 2 -55 9 -80 15 -25 5 -65 12 -90 16 -25 3 -52 8 -60 10 -8 2 -33 6
-55 9 -22 4 -51 8 -65 11 -52 10 -87 15 -138 21 -29 3 -61 7 -70 9 -9 1 -46 6
-82 10 -36 3 -81 8 -100 10 -115 13 -206 20 -391 31 -108 6 -516 13 -521 9z
m-1610 -2276 c101 -14 123 -19 199 -40 248 -69 450 -195 665 -417 297 -306
370 -478 412 -964 28 -323 39 -853 40 -1973 1 -1324 3 -1298 -91 -1386 -102
-95 -162 -109 -558 -125 -82 -3 -184 -7 -225 -9 -419 -19 -2157 -27 -2480 -12
-179 8 -226 12 -340 28 -85 13 -114 18 -177 33 -13 4 -32 8 -43 10 -33 8 -210
87 -216 98 -3 5 -14 12 -24 16 -62 23 -437 382 -542 518 -78 102 -139 240
-183 414 -35 142 -46 235 -47 393 0 139 7 201 38 340 111 508 518 953 1004
1097 179 53 331 75 594 86 83 3 165 7 181 9 17 2 37 4 45 4 13 1 15 36 15 249
0 257 4 295 52 487 112 453 417 830 818 1013 147 67 318 116 441 128 38 4 71
8 73 10 8 7 290 1 349 -7z m2562 -428 c73 -21 170 -81 345 -211 539 -402 969
-927 1265 -1545 255 -530 386 -1054 409 -1639 39 -954 -234 -1856 -801 -2643
-171 -238 -451 -538 -683 -731 -135 -112 -546 -402 -570 -402 -4 0 -20 -9 -36
-21 -43 -30 -390 -201 -494 -242 -221 -88 -449 -158 -680 -211 -80 -18 -275
-52 -350 -61 -27 -3 -66 -8 -85 -10 -33 -4 -112 -11 -225 -20 -62 -5 -435 -6
-490 -1 -22 2 -80 7 -129 11 -49 4 -96 8 -105 10 -9 1 -45 6 -81 9 -36 4 -76
9 -90 11 -14 3 -41 7 -60 10 -19 3 -55 10 -80 15 -25 5 -56 12 -70 14 -36 7
-69 14 -88 20 -9 3 -28 7 -42 10 -31 6 -45 10 -140 36 -41 11 -82 22 -90 25
-50 13 -272 91 -375 133 -144 57 -391 181 -520 260 -49 30 -99 60 -110 66 -34
19 -182 120 -285 195 -296 216 -658 585 -895 916 -117 162 -153 284 -125 420
17 80 39 123 93 172 75 69 152 98 282 108 135 9 225 15 315 20 52 3 134 7 183
10 225 13 270 15 387 20 69 3 166 7 215 10 50 3 142 7 205 10 63 3 149 8 190
10 141 8 307 15 650 30 69 3 168 7 220 10 52 3 154 7 225 10 72 3 173 8 225
10 52 3 145 7 205 10 353 17 526 25 605 30 41 3 127 7 190 10 63 3 144 7 180
10 36 2 128 7 205 10 77 3 151 8 165 10 14 2 77 7 140 10 160 8 170 11 170 43
0 15 5 122 10 237 11 243 34 1002 55 1860 14 575 19 769 30 1155 31 1030 43
1347 55 1456 24 218 154 335 365 329 39 -1 90 -7 115 -14z m3087 -208 c104
-49 497 -481 827 -908 637 -825 1061 -1861 1180 -2880 55 -467 46 -986 -24
-1465 -160 -1095 -678 -2166 -1514 -3135 -189 -219 -542 -568 -752 -745 -139
-116 -355 -286 -454 -355 -664 -466 -1282 -762 -1995 -953 -235 -64 -497 -114
-740 -142 -55 -7 -111 -14 -125 -15 -204 -26 -983 -26 -1062 0 -7 2 -42 6 -78
9 -36 3 -74 8 -85 10 -11 2 -45 7 -76 10 -31 4 -65 8 -75 10 -40 7 -91 16
-124 21 -19 3 -57 10 -85 15 -27 6 -60 12 -73 15 -13 2 -31 6 -40 9 -9 3 -30
8 -47 11 -16 3 -39 8 -51 10 -15 4 -176 46 -259 69 -154 42 -497 159 -664 225
-93 38 -507 237 -576 278 -100 60 -157 93 -161 93 -8 0 -286 180 -372 240
-104 73 -340 249 -388 289 -18 14 -71 58 -120 96 -298 238 -510 439 -552 525
-23 47 -27 67 -27 145 0 82 3 97 33 157 39 79 121 159 202 197 50 23 67 25
185 26 126 0 508 -12 610 -20 28 -2 120 -6 205 -10 153 -6 258 -11 415 -20 44
-3 132 -7 195 -10 63 -3 149 -7 190 -10 41 -2 140 -7 220 -10 80 -4 177 -8
215 -10 504 -25 1422 -25 1630 -1 17 2 84 7 150 10 66 4 136 9 155 11 19 2 76
7 125 10 85 6 112 8 218 20 23 2 67 7 97 10 30 3 71 8 90 10 19 3 53 7 75 9
141 17 222 27 235 31 8 2 40 7 70 10 30 4 197 31 370 62 303 53 436 79 715
144 72 17 148 34 170 39 49 11 439 112 515 134 30 8 111 31 180 49 253 69 283
78 300 87 10 5 27 47 43 107 15 54 52 188 82 298 259 938 407 1848 440 2710 4
94 9 184 11 200 8 71 4 1114 -6 1360 -16 434 -49 991 -85 1470 -31 406 -67
1073 -61 1130 17 168 158 319 318 343 64 9 157 -2 205 -25z"/>
<path d="M7327 14194 c-1 -1 -22 -4 -47 -7 -115 -12 -230 -57 -334 -131 -90
-64 -206 -192 -248 -272 -72 -137 -86 -240 -98 -738 -12 -469 -25 -546 -105
-635 -72 -79 -191 -105 -545 -116 -336 -10 -455 -20 -610 -47 -142 -24 -275
-76 -354 -136 -100 -77 -204 -241 -243 -382 -25 -89 -25 -290 0 -380 54 -200
193 -387 359 -485 100 -59 137 -66 408 -80 503 -26 2252 -25 2495 0 113 13
123 15 129 38 14 55 17 812 7 1450 -18 1131 -37 1362 -124 1547 -69 148 -290
311 -480 355 -52 12 -203 26 -210 19z"/>
<path d="M10395 13349 c-4 -5 -13 -182 -20 -392 -23 -635 -21 -566 -65 -2322
-21 -850 -41 -1433 -50 -1521 -12 -107 -37 -187 -80 -249 -81 -117 -188 -153
-510 -170 -63 -3 -149 -8 -190 -10 -144 -9 -246 -14 -370 -20 -69 -3 -163 -8
-210 -10 -47 -2 -137 -7 -200 -10 -63 -3 -164 -7 -225 -10 -60 -3 -148 -7
-195 -10 -47 -3 -148 -7 -225 -10 -77 -3 -180 -7 -230 -10 -103 -5 -279 -13
-440 -20 -60 -3 -153 -7 -205 -10 -52 -2 -147 -7 -210 -10 -63 -3 -153 -8
-200 -10 -47 -2 -139 -7 -205 -10 -251 -12 -313 -15 -400 -20 -49 -3 -135 -7
-190 -10 -107 -6 -267 -16 -300 -20 -11 -1 -26 -3 -32 -4 -28 -3 -10 -32 59
-96 40 -37 123 -104 183 -149 145 -107 248 -175 410 -268 17 -9 86 -45 155
-79 69 -33 142 -70 163 -80 20 -10 37 -16 37 -13 0 4 6 1 14 -5 35 -30 414
-153 569 -186 12 -2 54 -11 92 -19 84 -19 107 -22 210 -37 44 -6 91 -13 105
-15 49 -7 287 -18 380 -18 104 0 370 13 379 18 3 2 31 7 61 10 75 9 226 35
275 47 22 6 56 14 75 19 311 76 658 220 940 392 478 290 962 787 1227 1258
579 1031 571 2341 -20 3365 -182 316 -533 762 -562 714z"/>
<path d="M13540 12786 c0 -26 30 -519 45 -741 61 -910 57 -2076 -11 -2765 -44
-455 -144 -1069 -273 -1675 -52 -245 -70 -324 -147 -625 -125 -488 -163 -643
-170 -690 l-6 -45 37 35 c96 91 452 556 630 825 861 1294 1080 2849 608 4300
-141 435 -318 798 -620 1278 -70 110 -93 136 -93 103z"/>
<path d="M12712 6039 c-11 -4 -32 -10 -48 -12 -16 -3 -56 -13 -89 -22 -33 -9
-91 -25 -130 -35 -38 -10 -169 -46 -290 -80 -249 -70 -301 -85 -400 -110 -38
-10 -77 -20 -85 -24 -8 -3 -26 -8 -40 -10 -14 -3 -72 -17 -130 -31 -58 -15
-112 -28 -120 -30 -8 -2 -62 -14 -120 -28 -58 -14 -175 -40 -260 -57 -85 -18
-164 -34 -175 -36 -67 -16 -543 -98 -660 -114 -252 -35 -288 -40 -423 -55 -73
-9 -150 -17 -170 -20 -20 -2 -93 -9 -162 -15 -69 -6 -147 -12 -175 -15 -27 -2
-97 -7 -155 -10 -58 -3 -127 -8 -155 -10 -323 -27 -1467 -27 -1890 0 -22 1
-105 6 -185 9 -80 4 -183 9 -230 11 -307 16 -372 16 -368 3 8 -25 111 -95 302
-207 93 -54 314 -168 416 -214 30 -13 84 -38 120 -54 36 -16 92 -40 125 -53
33 -12 87 -33 120 -46 54 -21 258 -90 295 -99 8 -2 40 -12 70 -21 75 -22 354
-91 393 -98 18 -2 41 -7 52 -9 11 -3 40 -8 65 -12 25 -4 52 -9 60 -10 8 -1 35
-6 60 -10 25 -4 53 -9 64 -11 10 -2 51 -6 90 -10 39 -3 74 -8 77 -10 3 -2 57
-6 120 -9 63 -4 121 -9 129 -11 18 -6 532 -6 551 0 8 3 60 7 116 11 57 3 138
10 180 15 43 6 98 13 123 16 60 7 192 30 315 55 90 19 153 35 335 83 244 64
650 225 915 361 218 112 517 293 640 387 6 5 80 61 165 125 287 216 611 485
624 518 6 16 -26 17 -62 4z"/>
</g>
</svg>
